#!OML:ASF E:\Steps\Project 1\Capture day 1\Session 2\Subject.ASF
:FULLY-SPECIFIED
:DEGREES
17
root 8.98705 16.2721 31.7039 -158.863 -3.33188 176.004
lowerback -25.5448 -2.69799 -8.97256
upperback -1.45204 -1.35359 -1.48347
thorax 12.8301 -1.34089 2.91
lowerneck 0.635014 -3.0877 -1.45726
upperneck -17.125 -4.7212 5.68821
head -5.06592 -3.0828 2.26504
rclavicle 2.42517e-014 -2.14687e-014
rhumerus -32.4243 -18.1999 -81.535
rradius 26.7442
rwrist 1.71935
rhand -6.32042 -55.3581
rfingers 7.12502
rthumb 19.5243 -84.3977
lclavicle 2.42517e-014 -2.14687e-014
lhumerus -28.5347 23.3308 73.8722
lradius 10.4149
lwrist -27.7174
lhand -21.2198 -11.8418
lfingers 7.12502
lthumb 5.1621 18.0753
rfemur -19.4411 6.39016 16.1565
rtibia 9.68581
rfoot -20.3139 -9.07426
rtoes -32.3883
lfemur -21.7517 -10.8636 -23.7078
ltibia 12.9245
lfoot -10.6674 0.720056
ltoes -38.0019
18
root 8.98638 16.2725 31.7034 -158.81 -3.33581 176.023
lowerback -25.554 -2.71127 -8.97838
upperback -1.45854 -1.37134 -1.46379
thorax 12.8302 -1.3499 2.92935
lowerneck 0.647124 -3.07614 -1.4171
upperneck -17.1134 -4.69984 5.70052
head -5.06581 -3.07494 2.26138
rclavicle 1.54058e-014 -8.74653e-015
rhumerus -32.5428 -18.5352 -81.3243
rradius 26.5921
rwrist 1.9876
rhand -6.71576 -55.1488
rfingers 7.12502
rthumb 19.1442 -84.2265
lclavicle 1.54058e-014 -8.74653e-015
lhumerus -28.4891 23.3638 73.8094
lradius 9.91135
lwrist -27.5131
lhand -20.967 -12.2244
lfingers 7.12502
lthumb 5.4062 17.6866
rfemur -19.5323 6.37997 16.1697
rtibia 9.72061
rfoot -20.282 -9.09918
rtoes -32.4503
lfemur -21.825 -10.8502 -23.677
ltibia 12.9302
lfoot -10.7089 0.729145
ltoes -38.6546
19
root 8.9847 16.2731 31.7008 -158.788 -3.31315 176.026
lowerback -25.5871 -2.71751 -8.96198
upperback -1.42355 -1.37459 -1.45734
thorax 12.8901 -1.35169 2.92464
lowerneck 0.592359 -3.07923 -1.41238
upperneck -17.146 -4.70901 5.7328
head -5.06551 -3.08584 2.27074
rclavicle 1.77912e-014 4.77083e-015
rhumerus -32.593 -18.6422 -81.214
rradius 26.4875
rwrist 2.10223
rhand -6.60987 -54.9967
rfingers 7.12502
rthumb 19.246 -84.0643
lclavicle 1.77912e-014 4.77083e-015
lhumerus -28.5606 23.363 73.6362
lradius 9.59685
lwrist -27.4539
lhand -21.1177 -12.3401
lfingers 7.12502
lthumb 5.2607 17.5746
rfemur -19.5763 6.34683 16.1682
rtibia 9.74606
rfoot -20.1929 -9.12105
rtoes -32.5958
lfemur -21.8103 -10.879 -23.6752
ltibia 12.8593
lfoot -10.6811 0.796611
ltoes -39.0235
20
root 8.98502 16.2726 31.7003 -158.772 -3.30831 176.01
lowerback -25.5483 -2.71767 -9.02681
upperback -1.41127 -1.35839 -1.44296
thorax 12.8834 -1.34758 2.98488
lowerneck 0.497274 -3.08081 -1.44421
upperneck -17.093 -4.71479 5.72468
head -5.03227 -3.08463 2.26978
rclavicle 1.96797e-014 3.65764e-014
rhumerus -32.7355 -18.6125 -81.1083
rradius 26.514
rwrist 2.01651
rhand -6.47359 -54.7237
rfingers 7.12502
rthumb 19.377 -83.7783
lclavicle 1.96797e-014 3.65764e-014
lhumerus -28.8279 23.2404 73.4138
lradius 9.49311
lwrist -27.4908
lhand -20.8804 -11.4197
lfingers 7.12502
lthumb 5.48986 18.4891
rfemur -19.5651 6.38573 16.1485
rtibia 9.72888
rfoot -20.1619 -9.17835
rtoes -32.7597
lfemur -21.8287 -10.8575 -23.6958
ltibia 12.8688
lfoot -10.6652 0.77423
ltoes -39.1895
21
root 8.98631 16.2721 31.6996 -158.769 -3.25224 175.993
lowerback -25.4627 -2.71204 -9.10231
upperback -1.44174 -1.3457 -1.41491
thorax 12.8014 -1.34425 3.06776
lowerneck 0.393781 -3.02579 -1.54634
upperneck -16.9362 -4.64313 5.64143
head -4.96871 -3.029 2.25076
rclavicle 8.94531e-015 -1.47101e-014
rhumerus -32.9553 -18.5875 -80.9425
rradius 26.5097
rwrist 1.93038
rhand -6.49972 -54.5909
rfingers 7.12502
rthumb 19.3519 -83.6479
lclavicle 8.94531e-015 -1.47101e-014
lhumerus -28.999 23.249 73.3711
lradius 9.12957
lwrist -27.6032
lhand -20.7445 -10.8681
lfingers 7.12502
lthumb 5.62105 19.0373
rfemur -19.5576 6.46621 16.1217
rtibia 9.73023
rfoot -20.2683 -9.15502
rtoes -32.8275
lfemur -21.8431 -10.8331 -23.714
ltibia 12.929
lfoot -10.6281 0.738268
ltoes -38.8366
22
root 8.98613 16.2719 31.6984 -158.755 -3.19896 175.976
lowerback -25.4336 -2.71892 -9.12755
upperback -1.44116 -1.35119 -1.40561
thorax 12.7877 -1.34781 3.09155
lowerneck 0.168493 -2.93111 -1.60891
upperneck -16.6905 -4.52431 5.48711
head -4.86206 -2.94584 2.19646
rclavicle 7.40473e-015 -3.06128e-014
rhumerus -33.0683 -18.7015 -80.7913
rradius 26.394
rwrist 1.97358
rhand -6.63203 -54.2464
rfingers 7.12502
rthumb 19.2247 -83.3162
lclavicle 7.40473e-015 -3.06128e-014
lhumerus -28.8473 23.4025 73.4739
lradius 8.48434
lwrist -27.6362
lhand -20.9527 -10.8533
lfingers 7.12502
lthumb 5.42 19.0574
rfemur -19.6011 6.45002 16.0991
rtibia 9.77668
rfoot -20.3557 -9.09847
rtoes -32.7307
lfemur -21.8103 -10.8571 -23.7314
ltibia 12.8723
lfoot -10.5594 0.749239
ltoes -38.3618
23
root 8.98595 16.2712 31.6963 -158.748 -3.18529 176.006
lowerback -25.4547 -2.71927 -9.09812
upperback -1.41344 -1.35289 -1.3959
thorax 12.832 -1.34772 3.08433
lowerneck -0.040159 -2.89302 -1.61551
upperneck -16.4261 -4.46606 5.43108
head -4.74898 -2.9015 2.1659
rclavicle 3.23025e-015 -9.14409e-015
rhumerus -33.1278 -18.9163 -80.6515
rradius 26.2791
rwrist 2.12787
rhand -6.60943 -53.9279
rfingers 7.12502
rthumb 19.2464 -82.9955
lclavicle 3.23025e-015 -9.14409e-015
lhumerus -28.6557 23.5082 73.5417
lradius 7.91509
lwrist -27.5866
lhand -21.2015 -10.5564
lfingers 7.12502
lthumb 5.17975 19.3603
rfemur -19.6265 6.46366 16.1276
rtibia 9.79898
rfoot -20.3894 -9.07417
rtoes -32.4871
lfemur -21.7782 -10.8485 -23.7002
ltibia 12.7771
lfoot -10.5473 0.783571
ltoes -38.481
24
root 8.98766 16.2703 31.6928 -158.758 -3.15875 176.045
lowerback -25.4928 -2.72288 -9.08873
upperback -1.393 -1.35484 -1.36309
thorax 12.878 -1.34975 3.11477
lowerneck -0.0346728 -2.89529 -1.67981
upperneck -16.4023 -4.46303 5.47769
head -4.73984 -2.8976 2.19017
rclavicle 1.21259e-014 3.10104e-014
rhumerus -33.2314 -18.9895 -80.5213
rradius 26.204
rwrist 2.15891
rhand -6.591 -53.4536
rfingers 7.12502
rthumb 19.2641 -82.5195
lclavicle 1.21259e-014 3.10104e-014
lhumerus -28.5808 23.5965 73.5697
lradius 7.39952
lwrist -27.6576
lhand -21.5003 -10.5772
lfingers 7.12502
lthumb 4.89125 19.3463
rfemur -19.6121 6.37972 16.1892
rtibia 9.79669
rfoot -20.4235 -8.93487
rtoes -32.5144
lfemur -21.7768 -10.7897 -23.6612
ltibia 12.799
lfoot -10.5655 0.785302
ltoes -38.3379
25
root 8.98929 16.2702 31.6893 -158.757 -3.11728 176.036
lowerback -25.508 -2.72556 -9.12053
upperback -1.40328 -1.35099 -1.35637
thorax 12.8744 -1.35057 3.14178
lowerneck 0.0814401 -2.89783 -1.69631
upperneck -16.5366 -4.46722 5.52773
head -4.79875 -2.90775 2.21491
rclavicle 1.68967e-015 -2.26615e-014
rhumerus -33.4272 -18.9529 -80.4298
rradius 26.2018
rwrist 2.07065
rhand -6.69127 -53.0058
rfingers 7.12502
rthumb 19.1677 -82.0812
lclavicle 1.68967e-015 -2.26615e-014
lhumerus -28.6399 23.6103 73.4701
lradius 6.99542
lwrist -27.7902
lhand -21.8313 -10.6634
lfingers 7.12502
lthumb 4.57163 19.2673
rfemur -19.6007 6.28402 16.1925
rtibia 9.79232
rfoot -20.3544 -8.84691
rtoes -32.4595
lfemur -21.7718 -10.7402 -23.6787
ltibia 12.8304
lfoot -10.5156 0.788077
ltoes -37.8682
26
root 8.98934 16.2697 31.6878 -158.727 -3.08784 176.024
lowerback -25.5494 -2.73187 -9.13742
upperback -1.38681 -1.34745 -1.36198
thorax 12.9164 -1.35149 3.14471
lowerneck 0.296671 -2.96146 -1.68869
upperneck -16.8218 -4.55315 5.66873
head -4.91594 -2.97339 2.27363
rclavicle 9.0447e-015 -5.56597e-015
rhumerus -33.5594 -18.9204 -80.3888
rradius 26.2463
rwrist 1.98436
rhand -6.67634 -53.1254
rfingers 7.12502
rthumb 19.1821 -82.1994
lclavicle 9.0447e-015 -5.56597e-015
lhumerus -28.9987 23.5391 73.1927
lradius 7.2897
lwrist -27.7301
lhand -21.8336 -10.0671
lfingers 7.12502
lthumb 4.5694 19.8636
rfemur -19.6241 6.43934 16.1474
rtibia 9.78557
rfoot -20.2984 -8.94752
rtoes -32.0467
lfemur -21.7898 -10.7361 -23.6904
ltibia 12.8307
lfoot -10.5333 0.788187
ltoes -37.3165
27
root 8.98887 16.2694 31.6882 -158.687 -3.06933 176.02
lowerback -25.5647 -2.73127 -9.14489
upperback -1.39982 -1.34645 -1.3549
thorax 12.9094 -1.35195 3.15735
lowerneck 0.507275 -3.00652 -1.69161
upperneck -17.0652 -4.61545 5.75446
head -5.02184 -3.02036 2.31521
rclavicle -2.48481e-016 -5.68524e-014
rhumerus -33.7428 -18.9385 -80.2766
rradius 26.2718
rwrist 1.94325
rhand -6.46812 -53.3862
rfingers 7.12502
rthumb 19.3823 -82.4403
lclavicle -2.48481e-016 -5.68524e-014
lhumerus -29.8485 23.3636 72.7549
lradius 8.32962
lwrist -27.5766
lhand -21.2844 -9.72436
lfingers 7.12502
lthumb 5.09972 20.1943
rfemur -19.6781 6.55519 16.1136
rtibia 9.81075
rfoot -20.3245 -8.98717
rtoes -32.0515
lfemur -21.8401 -10.745 -23.6903
ltibia 12.852
lfoot -10.6229 0.772416
ltoes -37.0693
